<svg xmlns="http://www.w3.org/2000/svg" viewBox="0 0 15 15" width="512px" height="512px">
    <g fill="#474747">
        <path
            fill-rule="evenodd"
            clip-rule="evenodd"
            d="M 7.5 12.142 C 10.063 12.142 12.142 10.063 12.142 7.5 C 12.142 4.937 10.063 2.857 7.5 2.857 C 4.937 2.857 2.857 4.937 2.857 7.5 C 2.857 10.063 4.937 12.142 7.5 12.142 Z M 7.5 15 C 11.642 15 15 11.642 15 7.5 C 15 3.357 11.642 0 7.5 0 C 3.357 0 0 3.357 0 7.5 C 0 11.642 3.357 15 7.5 15 Z"
            transform="matrix(1, 0, 0, 1, 1.7763568394002505e-15, 0)"
            style="line-height:normal;font-variant-ligatures:normal;font-variant-position:normal;font-variant-caps:normal;font-variant-numeric:normal;font-variant-alternates:normal;font-feature-settings:normal;text-indent:0;text-align:start;text-decoration-line:none;text-decoration-style:solid;text-decoration-color:#000;text-transform:none;text-orientation:mixed;shape-padding:0;isolation:auto;mix-blend-mode:normal;marker:none"
            color="#bebebe"
            font-weight="400"
            font-family="sans-serif"
            overflow="visible"
        />
    </g>
</svg>
