<svg xmlns="http://www.w3.org/2000/svg" viewBox="0 0 512 512" width="512px" height="512px">
    <g fill="#474747">
        <path
            d="M 256 1.59 C 233.6 57.242 219.2 92.224 193.6 146.286 C 209.6 163.776 228.8 182.857 259.2 203.528 C 225.6 190.807 203.2 176.497 187.2 162.186 C 153.6 230.559 102.4 325.963 0 512 C 80 464.298 144 435.677 203.2 424.547 C 200 413.416 198.4 402.286 198.4 389.565 L 198.4 387.975 C 200 335.503 227.2 295.752 259.2 298.932 C 291.2 300.522 316.8 345.044 315.2 397.516 L 312 424.547 C 369.6 435.677 432 465.888 512 510.41 L 468.8 430.907 C 448 415.006 425.6 394.335 380.8 370.485 C 411.2 378.435 433.6 387.975 451.2 397.516 C 313.6 144.696 302.4 111.304 256 0 L 256 1.59 Z"
            style="line-height:normal;font-variant-ligatures:normal;font-variant-position:normal;font-variant-caps:normal;font-variant-numeric:normal;font-variant-alternates:normal;font-feature-settings:normal;text-indent:0;text-align:start;text-decoration-line:none;text-decoration-style:solid;text-decoration-color:#000;text-transform:none;text-orientation:mixed;shape-padding:0;isolation:auto;mix-blend-mode:normal;marker:none"
            color="#bebebe"
            font-weight="400"
            font-family="sans-serif"
            overflow="visible"
        />
    </g>
</svg>